<svg class="main-svg" xmlns="http://www.w3.org/2000/svg" xmlns:xlink="http://www.w3.org/1999/xlink" width="900" height="430" style="" viewBox="0 0 900 430"><rect x="0" y="0" width="900" height="430" style="fill: rgb(255, 255, 255); fill-opacity: 1;"/><defs id="defs-98a141"><g class="clips"><clipPath id="clip98a141xyplot" class="plotclip"><rect width="744.4799999999999" height="281"/></clipPath><clipPath id="clip98a141xy2plot" class="plotclip"><rect width="744.4799999999999" height="281"/></clipPath><clipPath class="axesclip" id="clip98a141x"><rect x="68" y="0" width="744.4799999999999" height="430"/></clipPath><clipPath class="axesclip" id="clip98a141y"><rect x="0" y="50" width="900" height="281"/></clipPath><clipPath class="axesclip" id="clip98a141xy"><rect x="68" y="50" width="744.4799999999999" height="281"/></clipPath><clipPath class="axesclip" id="clip98a141y2"><rect x="0" y="50" width="900" height="281"/></clipPath><clipPath class="axesclip" id="clip98a141xy2"><rect x="68" y="50" width="744.4799999999999" height="281"/></clipPath></g><g class="gradients"/><g class="patterns"/></defs><g class="bglayer"/><g class="layer-below"><g class="imagelayer"/><g class="shapelayer"/></g><g class="cartesianlayer"><g class="subplot xy"><g class="layer-subplot"><g class="shapelayer"/><g class="imagelayer"/></g><g class="minor-gridlayer"><g class="x"/><g class="y"/><g class="y2"/></g><g class="gridlayer"><g class="x"/><g class="y"/><g class="y2"><path class="y2grid crisp" transform="translate(0,284.97)" d="M68,0h744.4799999999999" style="stroke: rgb(235, 240, 248); stroke-opacity: 1; stroke-width: 1px;"/><path class="y2grid crisp" transform="translate(0,238.95)" d="M68,0h744.4799999999999" style="stroke: rgb(235, 240, 248); stroke-opacity: 1; stroke-width: 1px;"/><path class="y2grid crisp" transform="translate(0,192.92)" d="M68,0h744.4799999999999" style="stroke: rgb(235, 240, 248); stroke-opacity: 1; stroke-width: 1px;"/><path class="y2grid crisp" transform="translate(0,146.89)" d="M68,0h744.4799999999999" style="stroke: rgb(235, 240, 248); stroke-opacity: 1; stroke-width: 1px;"/><path class="y2grid crisp" transform="translate(0,100.87)" d="M68,0h744.4799999999999" style="stroke: rgb(235, 240, 248); stroke-opacity: 1; stroke-width: 1px;"/><path class="y2grid crisp" transform="translate(0,54.84)" d="M68,0h744.4799999999999" style="stroke: rgb(235, 240, 248); stroke-opacity: 1; stroke-width: 1px;"/></g></g><g class="zerolinelayer"><path class="yzl zl crisp" transform="translate(0,331)" d="M68,0h744.4799999999999" style="stroke: rgb(235, 240, 248); stroke-opacity: 1; stroke-width: 2px;"/><path class="y2zl zl crisp" transform="translate(0,331)" d="M68,0h744.4799999999999" style="stroke: rgb(235, 240, 248); stroke-opacity: 1; stroke-width: 2px;"/></g><g class="layer-between"><g class="shapelayer"/><g class="imagelayer"/></g><path class="xlines-below"/><path class="ylines-below"/><g class="overlines-below"><path class="xy2-x"/><path class="xy2-y"/></g><g class="xaxislayer-below"/><g class="yaxislayer-below"/><g class="overaxes-below"><g class="xy2-x"/><g class="xy2-y"/></g><g class="overplot"><g class="xy" transform="translate(68,50)" clip-path="url(#clip98a141xyplot)"><g class="barlayer mlayer"><g class="trace bars" style="opacity: 0.7;"><g class="points"><g class="point"><path d="M27.03,281V251.57H54.92V281Z" style="vector-effect: none; opacity: 1; stroke-width: 0.5px; fill: rgb(201, 207, 214); fill-opacity: 1; stroke: rgb(255, 255, 255); stroke-opacity: 1;"/></g><g class="point"><path d="M61.9,281V128.86H89.79V281Z" style="vector-effect: none; opacity: 1; stroke-width: 0.5px; fill: rgb(201, 207, 214); fill-opacity: 1; stroke: rgb(255, 255, 255); stroke-opacity: 1;"/></g><g class="point"><path d="M96.77,281V143.81H124.66V281Z" style="vector-effect: none; opacity: 1; stroke-width: 0.5px; fill: rgb(201, 207, 214); fill-opacity: 1; stroke: rgb(255, 255, 255); stroke-opacity: 1;"/></g><g class="point"><path d="M131.64,281V165.41H159.53V281Z" style="vector-effect: none; opacity: 1; stroke-width: 0.5px; fill: rgb(201, 207, 214); fill-opacity: 1; stroke: rgb(255, 255, 255); stroke-opacity: 1;"/></g><g class="point"><path d="M166.51,281V174.88H194.4V281Z" style="vector-effect: none; opacity: 1; stroke-width: 0.5px; fill: rgb(201, 207, 214); fill-opacity: 1; stroke: rgb(255, 255, 255); stroke-opacity: 1;"/></g><g class="point"><path d="M201.38,281V97.72H229.27V281Z" style="vector-effect: none; opacity: 1; stroke-width: 0.5px; fill: rgb(201, 207, 214); fill-opacity: 1; stroke: rgb(255, 255, 255); stroke-opacity: 1;"/></g><g class="point"><path d="M236.25,281V193.66H264.14V281Z" style="vector-effect: none; opacity: 1; stroke-width: 0.5px; fill: rgb(201, 207, 214); fill-opacity: 1; stroke: rgb(255, 255, 255); stroke-opacity: 1;"/></g><g class="point"><path d="M271.12,281V206.95H299.01V281Z" style="vector-effect: none; opacity: 1; stroke-width: 0.5px; fill: rgb(201, 207, 214); fill-opacity: 1; stroke: rgb(255, 255, 255); stroke-opacity: 1;"/></g><g class="point"><path d="M305.99,281V145.52H333.88V281Z" style="vector-effect: none; opacity: 1; stroke-width: 0.5px; fill: rgb(201, 207, 214); fill-opacity: 1; stroke: rgb(255, 255, 255); stroke-opacity: 1;"/></g><g class="point"><path d="M340.86,281V201.07H368.75V281Z" style="vector-effect: none; opacity: 1; stroke-width: 0.5px; fill: rgb(201, 207, 214); fill-opacity: 1; stroke: rgb(255, 255, 255); stroke-opacity: 1;"/></g><g class="point"><path d="M375.73,281V180.79H403.62V281Z" style="vector-effect: none; opacity: 1; stroke-width: 0.5px; fill: rgb(201, 207, 214); fill-opacity: 1; stroke: rgb(255, 255, 255); stroke-opacity: 1;"/></g><g class="point"><path d="M410.6,281V157.07H438.49V281Z" style="vector-effect: none; opacity: 1; stroke-width: 0.5px; fill: rgb(201, 207, 214); fill-opacity: 1; stroke: rgb(255, 255, 255); stroke-opacity: 1;"/></g><g class="point"><path d="M445.47,281V131.15H473.36V281Z" style="vector-effect: none; opacity: 1; stroke-width: 0.5px; fill: rgb(201, 207, 214); fill-opacity: 1; stroke: rgb(255, 255, 255); stroke-opacity: 1;"/></g><g class="point"><path d="M480.34,281V101.09H508.23V281Z" style="vector-effect: none; opacity: 1; stroke-width: 0.5px; fill: rgb(201, 207, 214); fill-opacity: 1; stroke: rgb(255, 255, 255); stroke-opacity: 1;"/></g><g class="point"><path d="M515.21,281V87.9H543.1V281Z" style="vector-effect: none; opacity: 1; stroke-width: 0.5px; fill: rgb(201, 207, 214); fill-opacity: 1; stroke: rgb(255, 255, 255); stroke-opacity: 1;"/></g><g class="point"><path d="M550.08,281V14.05H577.97V281Z" style="vector-effect: none; opacity: 1; stroke-width: 0.5px; fill: rgb(201, 207, 214); fill-opacity: 1; stroke: rgb(255, 255, 255); stroke-opacity: 1;"/></g><g class="point"><path d="M584.95,281V175.59H612.84V281Z" style="vector-effect: none; opacity: 1; stroke-width: 0.5px; fill: rgb(201, 207, 214); fill-opacity: 1; stroke: rgb(255, 255, 255); stroke-opacity: 1;"/></g><g class="point"><path d="M619.82,281V175.7H647.71V281Z" style="vector-effect: none; opacity: 1; stroke-width: 0.5px; fill: rgb(201, 207, 214); fill-opacity: 1; stroke: rgb(255, 255, 255); stroke-opacity: 1;"/></g><g class="point"><path d="M654.69,281V188.55H682.58V281Z" style="vector-effect: none; opacity: 1; stroke-width: 0.5px; fill: rgb(201, 207, 214); fill-opacity: 1; stroke: rgb(255, 255, 255); stroke-opacity: 1;"/></g><g class="point"><path d="M689.56,281V281H717.45V281Z" style="vector-effect: none; opacity: 1; stroke-width: 0.5px; fill: rgb(201, 207, 214); fill-opacity: 1; stroke: rgb(255, 255, 255); stroke-opacity: 1;"/></g></g></g></g></g><g class="xy2" transform="translate(68,50)" clip-path="url(#clip98a141xy2plot)"><g class="scatterlayer mlayer"><g class="trace scatter traceeb30ee" style="stroke-miterlimit: 2; opacity: 1;"><g class="fills"/><g class="errorbars"/><g class="lines"><path class="js-line" d="M40.97,17.8L75.84,225.19L110.71,220.92L145.58,245.39L180.45,238.88L215.32,248.14L250.19,254.91L285.06,250.93L319.93,249.61L354.8,264.92L389.68,272.77L424.55,276.2L459.42,276.71L494.29,277.76L529.16,279.6L564.03,278.17L598.9,279.36L633.77,269.1L668.64,276.92" style="vector-effect: none; fill: none; stroke: rgb(192, 57, 43); stroke-opacity: 1; stroke-width: 2.5px; opacity: 1;"/></g><g class="points"><path class="point" transform="translate(40.97,17.8)" d="M3,0A3,3 0 1,1 0,-3A3,3 0 0,1 3,0Z" style="opacity: 1; stroke-width: 0px; fill: rgb(192, 57, 43); fill-opacity: 1;"/><path class="point" transform="translate(75.84,225.19)" d="M3,0A3,3 0 1,1 0,-3A3,3 0 0,1 3,0Z" style="opacity: 1; stroke-width: 0px; fill: rgb(192, 57, 43); fill-opacity: 1;"/><path class="point" transform="translate(110.71,220.92)" d="M3,0A3,3 0 1,1 0,-3A3,3 0 0,1 3,0Z" style="opacity: 1; stroke-width: 0px; fill: rgb(192, 57, 43); fill-opacity: 1;"/><path class="point" transform="translate(145.58,245.39)" d="M3,0A3,3 0 1,1 0,-3A3,3 0 0,1 3,0Z" style="opacity: 1; stroke-width: 0px; fill: rgb(192, 57, 43); fill-opacity: 1;"/><path class="point" transform="translate(180.45,238.88)" d="M3,0A3,3 0 1,1 0,-3A3,3 0 0,1 3,0Z" style="opacity: 1; stroke-width: 0px; fill: rgb(192, 57, 43); fill-opacity: 1;"/><path class="point" transform="translate(215.32,248.14)" d="M3,0A3,3 0 1,1 0,-3A3,3 0 0,1 3,0Z" style="opacity: 1; stroke-width: 0px; fill: rgb(192, 57, 43); fill-opacity: 1;"/><path class="point" transform="translate(250.19,254.91)" d="M3,0A3,3 0 1,1 0,-3A3,3 0 0,1 3,0Z" style="opacity: 1; stroke-width: 0px; fill: rgb(192, 57, 43); fill-opacity: 1;"/><path class="point" transform="translate(285.06,250.93)" d="M3,0A3,3 0 1,1 0,-3A3,3 0 0,1 3,0Z" style="opacity: 1; stroke-width: 0px; fill: rgb(192, 57, 43); fill-opacity: 1;"/><path class="point" transform="translate(319.93,249.61)" d="M3,0A3,3 0 1,1 0,-3A3,3 0 0,1 3,0Z" style="opacity: 1; stroke-width: 0px; fill: rgb(192, 57, 43); fill-opacity: 1;"/><path class="point" transform="translate(354.8,264.92)" d="M3,0A3,3 0 1,1 0,-3A3,3 0 0,1 3,0Z" style="opacity: 1; stroke-width: 0px; fill: rgb(192, 57, 43); fill-opacity: 1;"/><path class="point" transform="translate(389.68,272.77)" d="M3,0A3,3 0 1,1 0,-3A3,3 0 0,1 3,0Z" style="opacity: 1; stroke-width: 0px; fill: rgb(192, 57, 43); fill-opacity: 1;"/><path class="point" transform="translate(424.55,276.2)" d="M3,0A3,3 0 1,1 0,-3A3,3 0 0,1 3,0Z" style="opacity: 1; stroke-width: 0px; fill: rgb(192, 57, 43); fill-opacity: 1;"/><path class="point" transform="translate(459.42,276.71)" d="M3,0A3,3 0 1,1 0,-3A3,3 0 0,1 3,0Z" style="opacity: 1; stroke-width: 0px; fill: rgb(192, 57, 43); fill-opacity: 1;"/><path class="point" transform="translate(494.29,277.76)" d="M3,0A3,3 0 1,1 0,-3A3,3 0 0,1 3,0Z" style="opacity: 1; stroke-width: 0px; fill: rgb(192, 57, 43); fill-opacity: 1;"/><path class="point" transform="translate(529.16,279.6)" d="M3,0A3,3 0 1,1 0,-3A3,3 0 0,1 3,0Z" style="opacity: 1; stroke-width: 0px; fill: rgb(192, 57, 43); fill-opacity: 1;"/><path class="point" transform="translate(564.03,278.17)" d="M3,0A3,3 0 1,1 0,-3A3,3 0 0,1 3,0Z" style="opacity: 1; stroke-width: 0px; fill: rgb(192, 57, 43); fill-opacity: 1;"/><path class="point" transform="translate(598.9,279.36)" d="M3,0A3,3 0 1,1 0,-3A3,3 0 0,1 3,0Z" style="opacity: 1; stroke-width: 0px; fill: rgb(192, 57, 43); fill-opacity: 1;"/><path class="point" transform="translate(633.77,269.1)" d="M3,0A3,3 0 1,1 0,-3A3,3 0 0,1 3,0Z" style="opacity: 1; stroke-width: 0px; fill: rgb(192, 57, 43); fill-opacity: 1;"/><path class="point" transform="translate(668.64,276.92)" d="M3,0A3,3 0 1,1 0,-3A3,3 0 0,1 3,0Z" style="opacity: 1; stroke-width: 0px; fill: rgb(192, 57, 43); fill-opacity: 1;"/></g><g class="text"/></g><g class="trace scatter trace46394c" style="stroke-miterlimit: 2; opacity: 1;"><g class="fills"/><g class="errorbars"/><g class="lines"><path class="js-line" d="M40.97,23.27L75.84,239.55L110.71,238.4L145.58,249.46L180.45,248.42L215.32,248.34L250.19,256.35L285.06,256.61L319.93,253.33L354.8,261.63L389.68,271.58L424.55,275.77L459.42,276.15L598.9,277.47L633.77,275.86L668.64,275.52" style="vector-effect: none; fill: none; stroke: rgb(31, 95, 153); stroke-opacity: 1; stroke-width: 2.5px; opacity: 1;"/></g><g class="points"><path class="point" transform="translate(40.97,23.27)" d="M3,0A3,3 0 1,1 0,-3A3,3 0 0,1 3,0Z" style="opacity: 1; stroke-width: 0px; fill: rgb(31, 95, 153); fill-opacity: 1;"/><path class="point" transform="translate(75.84,239.55)" d="M3,0A3,3 0 1,1 0,-3A3,3 0 0,1 3,0Z" style="opacity: 1; stroke-width: 0px; fill: rgb(31, 95, 153); fill-opacity: 1;"/><path class="point" transform="translate(110.71,238.4)" d="M3,0A3,3 0 1,1 0,-3A3,3 0 0,1 3,0Z" style="opacity: 1; stroke-width: 0px; fill: rgb(31, 95, 153); fill-opacity: 1;"/><path class="point" transform="translate(145.58,249.46)" d="M3,0A3,3 0 1,1 0,-3A3,3 0 0,1 3,0Z" style="opacity: 1; stroke-width: 0px; fill: rgb(31, 95, 153); fill-opacity: 1;"/><path class="point" transform="translate(180.45,248.42)" d="M3,0A3,3 0 1,1 0,-3A3,3 0 0,1 3,0Z" style="opacity: 1; stroke-width: 0px; fill: rgb(31, 95, 153); fill-opacity: 1;"/><path class="point" transform="translate(215.32,248.34)" d="M3,0A3,3 0 1,1 0,-3A3,3 0 0,1 3,0Z" style="opacity: 1; stroke-width: 0px; fill: rgb(31, 95, 153); fill-opacity: 1;"/><path class="point" transform="translate(250.19,256.35)" d="M3,0A3,3 0 1,1 0,-3A3,3 0 0,1 3,0Z" style="opacity: 1; stroke-width: 0px; fill: rgb(31, 95, 153); fill-opacity: 1;"/><path class="point" transform="translate(285.06,256.61)" d="M3,0A3,3 0 1,1 0,-3A3,3 0 0,1 3,0Z" style="opacity: 1; stroke-width: 0px; fill: rgb(31, 95, 153); fill-opacity: 1;"/><path class="point" transform="translate(319.93,253.33)" d="M3,0A3,3 0 1,1 0,-3A3,3 0 0,1 3,0Z" style="opacity: 1; stroke-width: 0px; fill: rgb(31, 95, 153); fill-opacity: 1;"/><path class="point" transform="translate(354.8,261.63)" d="M3,0A3,3 0 1,1 0,-3A3,3 0 0,1 3,0Z" style="opacity: 1; stroke-width: 0px; fill: rgb(31, 95, 153); fill-opacity: 1;"/><path class="point" transform="translate(389.68,271.58)" d="M3,0A3,3 0 1,1 0,-3A3,3 0 0,1 3,0Z" style="opacity: 1; stroke-width: 0px; fill: rgb(31, 95, 153); fill-opacity: 1;"/><path class="point" transform="translate(424.55,275.77)" d="M3,0A3,3 0 1,1 0,-3A3,3 0 0,1 3,0Z" style="opacity: 1; stroke-width: 0px; fill: rgb(31, 95, 153); fill-opacity: 1;"/><path class="point" transform="translate(459.42,276.15)" d="M3,0A3,3 0 1,1 0,-3A3,3 0 0,1 3,0Z" style="opacity: 1; stroke-width: 0px; fill: rgb(31, 95, 153); fill-opacity: 1;"/><path class="point" transform="translate(494.29,276.51)" d="M3,0A3,3 0 1,1 0,-3A3,3 0 0,1 3,0Z" style="opacity: 1; stroke-width: 0px; fill: rgb(31, 95, 153); fill-opacity: 1;"/><path class="point" transform="translate(529.16,277.06)" d="M3,0A3,3 0 1,1 0,-3A3,3 0 0,1 3,0Z" style="opacity: 1; stroke-width: 0px; fill: rgb(31, 95, 153); fill-opacity: 1;"/><path class="point" transform="translate(564.03,277.49)" d="M3,0A3,3 0 1,1 0,-3A3,3 0 0,1 3,0Z" style="opacity: 1; stroke-width: 0px; fill: rgb(31, 95, 153); fill-opacity: 1;"/><path class="point" transform="translate(598.9,277.47)" d="M3,0A3,3 0 1,1 0,-3A3,3 0 0,1 3,0Z" style="opacity: 1; stroke-width: 0px; fill: rgb(31, 95, 153); fill-opacity: 1;"/><path class="point" transform="translate(633.77,275.86)" d="M3,0A3,3 0 1,1 0,-3A3,3 0 0,1 3,0Z" style="opacity: 1; stroke-width: 0px; fill: rgb(31, 95, 153); fill-opacity: 1;"/><path class="point" transform="translate(668.64,275.52)" d="M3,0A3,3 0 1,1 0,-3A3,3 0 0,1 3,0Z" style="opacity: 1; stroke-width: 0px; fill: rgb(31, 95, 153); fill-opacity: 1;"/></g><g class="text"/></g></g></g></g><g class="zerolinelayer-above"/><path class="xlines-above crisp" d="M0,0" style="fill: none;"/><path class="ylines-above crisp" d="M0,0" style="fill: none;"/><g class="overlines-above"><path class="xy2-x crisp" d="M0,0" style="fill: none;"/><path class="xy2-y crisp" d="M0,0" style="fill: none;"/></g><g class="xaxislayer-above"><g class="xtick"><text text-anchor="end" x="0" y="344" transform="translate(108.97,0) rotate(-45,0,338)" style="font-family: 'Open Sans', verdana, arial, sans-serif; font-size: 12px; fill: rgb(42, 63, 95); fill-opacity: 1; white-space: pre;">&#60; 1.0</text></g><g class="xtick"><text text-anchor="end" x="0" y="344" transform="translate(143.84,0) rotate(-45,0,338)" style="font-family: 'Open Sans', verdana, arial, sans-serif; font-size: 12px; fill: rgb(42, 63, 95); fill-opacity: 1; white-space: pre;">[1.0, 2.0)</text></g><g class="xtick"><text text-anchor="end" x="0" y="344" transform="translate(178.70999999999998,0) rotate(-45,0,338)" style="font-family: 'Open Sans', verdana, arial, sans-serif; font-size: 12px; fill: rgb(42, 63, 95); fill-opacity: 1; white-space: pre;">[2.0, 3.0)</text></g><g class="xtick"><text text-anchor="end" x="0" y="344" transform="translate(213.58,0) rotate(-45,0,338)" style="font-family: 'Open Sans', verdana, arial, sans-serif; font-size: 12px; fill: rgb(42, 63, 95); fill-opacity: 1; white-space: pre;">[3.0, 4.0)</text></g><g class="xtick"><text text-anchor="end" x="0" y="344" transform="translate(248.45,0) rotate(-45,0,338)" style="font-family: 'Open Sans', verdana, arial, sans-serif; font-size: 12px; fill: rgb(42, 63, 95); fill-opacity: 1; white-space: pre;">[4.0, 5.0)</text></g><g class="xtick"><text text-anchor="end" x="0" y="344" transform="translate(283.32,0) rotate(-45,0,338)" style="font-family: 'Open Sans', verdana, arial, sans-serif; font-size: 12px; fill: rgb(42, 63, 95); fill-opacity: 1; white-space: pre;">[5.0, 7.0)</text></g><g class="xtick"><text text-anchor="end" x="0" y="344" transform="translate(318.19,0) rotate(-45,0,338)" style="font-family: 'Open Sans', verdana, arial, sans-serif; font-size: 12px; fill: rgb(42, 63, 95); fill-opacity: 1; white-space: pre;">[7.0, 8.0)</text></g><g class="xtick"><text text-anchor="end" x="0" y="344" transform="translate(353.06,0) rotate(-45,0,338)" style="font-family: 'Open Sans', verdana, arial, sans-serif; font-size: 12px; fill: rgb(42, 63, 95); fill-opacity: 1; white-space: pre;">[8.0, 9.0)</text></g><g class="xtick"><text text-anchor="end" x="0" y="344" transform="translate(387.93,0) rotate(-45,0,338)" style="font-family: 'Open Sans', verdana, arial, sans-serif; font-size: 12px; fill: rgb(42, 63, 95); fill-opacity: 1; white-space: pre;">[9.0, 11.0)</text></g><g class="xtick"><text text-anchor="end" x="0" y="344" transform="translate(422.8,0) rotate(-45,0,338)" style="font-family: 'Open Sans', verdana, arial, sans-serif; font-size: 12px; fill: rgb(42, 63, 95); fill-opacity: 1; white-space: pre;">[11.0, 12.0)</text></g><g class="xtick"><text text-anchor="end" x="0" y="344" transform="translate(457.68,0) rotate(-45,0,338)" style="font-family: 'Open Sans', verdana, arial, sans-serif; font-size: 12px; fill: rgb(42, 63, 95); fill-opacity: 1; white-space: pre;">[12.0, 13.0)</text></g><g class="xtick"><text text-anchor="end" x="0" y="344" transform="translate(492.55,0) rotate(-45,0,338)" style="font-family: 'Open Sans', verdana, arial, sans-serif; font-size: 12px; fill: rgb(42, 63, 95); fill-opacity: 1; white-space: pre;">[13.0, 14.0)</text></g><g class="xtick"><text text-anchor="end" x="0" y="344" transform="translate(527.4200000000001,0) rotate(-45,0,338)" style="font-family: 'Open Sans', verdana, arial, sans-serif; font-size: 12px; fill: rgb(42, 63, 95); fill-opacity: 1; white-space: pre;">[14.0, 15.0)</text></g><g class="xtick"><text text-anchor="end" x="0" y="344" transform="translate(562.29,0) rotate(-45,0,338)" style="font-family: 'Open Sans', verdana, arial, sans-serif; font-size: 12px; fill: rgb(42, 63, 95); fill-opacity: 1; white-space: pre;">[15.0, 16.0)</text></g><g class="xtick"><text text-anchor="end" x="0" y="344" transform="translate(597.16,0) rotate(-45,0,338)" style="font-family: 'Open Sans', verdana, arial, sans-serif; font-size: 12px; fill: rgb(42, 63, 95); fill-opacity: 1; white-space: pre;">[16.0, 17.0)</text></g><g class="xtick"><text text-anchor="end" x="0" y="344" transform="translate(632.03,0) rotate(-45,0,338)" style="font-family: 'Open Sans', verdana, arial, sans-serif; font-size: 12px; fill: rgb(42, 63, 95); fill-opacity: 1; white-space: pre;">[17.0, 19.0)</text></g><g class="xtick"><text text-anchor="end" x="0" y="344" transform="translate(666.9,0) rotate(-45,0,338)" style="font-family: 'Open Sans', verdana, arial, sans-serif; font-size: 12px; fill: rgb(42, 63, 95); fill-opacity: 1; white-space: pre;">[19.0, 22.0)</text></g><g class="xtick"><text text-anchor="end" x="0" y="344" transform="translate(701.77,0) rotate(-45,0,338)" style="font-family: 'Open Sans', verdana, arial, sans-serif; font-size: 12px; fill: rgb(42, 63, 95); fill-opacity: 1; white-space: pre;">[22.0, 30.0)</text></g><g class="xtick"><text text-anchor="end" x="0" y="344" transform="translate(736.64,0) rotate(-45,0,338)" style="font-family: 'Open Sans', verdana, arial, sans-serif; font-size: 12px; fill: rgb(42, 63, 95); fill-opacity: 1; white-space: pre;">≥ 30.0</text></g><g class="xtick"><text text-anchor="end" x="0" y="344" transform="translate(771.51,0) rotate(-45,0,338)" style="font-family: 'Open Sans', verdana, arial, sans-serif; font-size: 12px; fill: rgb(42, 63, 95); fill-opacity: 1; white-space: pre;">Other / Unknown</text></g></g><g class="yaxislayer-above"><g class="ytick"><text text-anchor="end" x="67" y="4.199999999999999" transform="translate(0,331)" style="font-family: 'Open Sans', verdana, arial, sans-serif; font-size: 12px; fill: rgb(42, 63, 95); fill-opacity: 1; white-space: pre;">0</text></g><g class="ytick"><text text-anchor="end" x="67" y="4.199999999999999" style="font-family: 'Open Sans', verdana, arial, sans-serif; font-size: 12px; fill: rgb(42, 63, 95); fill-opacity: 1; white-space: pre;" transform="translate(0,277.65999999999997)">1000</text></g><g class="ytick"><text text-anchor="end" x="67" y="4.199999999999999" style="font-family: 'Open Sans', verdana, arial, sans-serif; font-size: 12px; fill: rgb(42, 63, 95); fill-opacity: 1; white-space: pre;" transform="translate(0,224.33)">2000</text></g><g class="ytick"><text text-anchor="end" x="67" y="4.199999999999999" style="font-family: 'Open Sans', verdana, arial, sans-serif; font-size: 12px; fill: rgb(42, 63, 95); fill-opacity: 1; white-space: pre;" transform="translate(0,170.99)">3000</text></g><g class="ytick"><text text-anchor="end" x="67" y="4.199999999999999" style="font-family: 'Open Sans', verdana, arial, sans-serif; font-size: 12px; fill: rgb(42, 63, 95); fill-opacity: 1; white-space: pre;" transform="translate(0,117.66)">4000</text></g><g class="ytick"><text text-anchor="end" x="67" y="4.199999999999999" style="font-family: 'Open Sans', verdana, arial, sans-serif; font-size: 12px; fill: rgb(42, 63, 95); fill-opacity: 1; white-space: pre;" transform="translate(0,64.32)">5000</text></g></g><g class="overaxes-above"><g class="xy2-x"/><g class="xy2-y"><g class="y2tick"><text text-anchor="start" x="813.4799999999999" y="4.199999999999999" transform="translate(0,331)" style="font-family: 'Open Sans', verdana, arial, sans-serif; font-size: 12px; fill: rgb(42, 63, 95); fill-opacity: 1; white-space: pre;">0</text></g><g class="y2tick"><text text-anchor="start" x="813.4799999999999" y="4.199999999999999" style="font-family: 'Open Sans', verdana, arial, sans-serif; font-size: 12px; fill: rgb(42, 63, 95); fill-opacity: 1; white-space: pre;" transform="translate(0,284.97)">500</text></g><g class="y2tick"><text text-anchor="start" x="813.4799999999999" y="4.199999999999999" style="font-family: 'Open Sans', verdana, arial, sans-serif; font-size: 12px; fill: rgb(42, 63, 95); fill-opacity: 1; white-space: pre;" transform="translate(0,238.95)">1000</text></g><g class="y2tick"><text text-anchor="start" x="813.4799999999999" y="4.199999999999999" style="font-family: 'Open Sans', verdana, arial, sans-serif; font-size: 12px; fill: rgb(42, 63, 95); fill-opacity: 1; white-space: pre;" transform="translate(0,192.92)">1500</text></g><g class="y2tick"><text text-anchor="start" x="813.4799999999999" y="4.199999999999999" style="font-family: 'Open Sans', verdana, arial, sans-serif; font-size: 12px; fill: rgb(42, 63, 95); fill-opacity: 1; white-space: pre;" transform="translate(0,146.89)">2000</text></g><g class="y2tick"><text text-anchor="start" x="813.4799999999999" y="4.199999999999999" style="font-family: 'Open Sans', verdana, arial, sans-serif; font-size: 12px; fill: rgb(42, 63, 95); fill-opacity: 1; white-space: pre;" transform="translate(0,100.87)">2500</text></g><g class="y2tick"><text text-anchor="start" x="813.4799999999999" y="4.199999999999999" style="font-family: 'Open Sans', verdana, arial, sans-serif; font-size: 12px; fill: rgb(42, 63, 95); fill-opacity: 1; white-space: pre;" transform="translate(0,54.84)">3000</text></g></g></g></g><g class="subplot xy2"/></g><g class="polarlayer"/><g class="smithlayer"/><g class="ternarylayer"/><g class="geolayer"/><g class="funnelarealayer"/><g class="pielayer"/><g class="iciclelayer"/><g class="treemaplayer"/><g class="sunburstlayer"/><g class="glimages"/><defs id="topdefs-98a141"><g class="clips"/><clipPath id="legend98a141"><rect width="282" height="29" x="0" y="0"/></clipPath></defs><g class="layer-above"><g class="imagelayer"/><g class="shapelayer"/></g><g class="infolayer"><g class="legend" pointer-events="all" transform="translate(68,15.379999999999995)"><rect class="bg" shape-rendering="crispEdges" style="stroke: rgb(68, 68, 68); stroke-opacity: 1; fill: rgb(255, 255, 255); fill-opacity: 1; stroke-width: 0px;" width="282" height="29" x="0" y="0"/><g class="scrollbox" transform="" clip-path="url(#legend98a141)"><g class="groups"><g class="traces" transform="translate(0,14.5)" style="opacity: 1;"><text class="legendtext" text-anchor="start" x="40" y="4.680000000000001" style="font-family: 'Open Sans', verdana, arial, sans-serif; font-size: 12px; fill: rgb(42, 63, 95); fill-opacity: 1; white-space: pre;">Exposure</text><g class="layers" style="opacity: 0.7;"><g class="legendfill"/><g class="legendlines"/><g class="legendsymbols"><g class="legendpoints"><path class="legendundefined" d="M6,6H-6V-6H6Z" transform="translate(20,0)" style="stroke-width: 0.5px; fill: rgb(201, 207, 214); fill-opacity: 1; stroke: rgb(255, 255, 255); stroke-opacity: 1;"/></g></g></g><rect class="legendtoggle" x="0" y="-9.5" width="98.078125" height="19" style="fill: rgb(0, 0, 0); fill-opacity: 0;"/></g><g class="traces" transform="translate(100.578125,14.5)" style="opacity: 1;"><text class="legendtext" text-anchor="start" x="40" y="4.680000000000001" style="font-family: 'Open Sans', verdana, arial, sans-serif; font-size: 12px; fill: rgb(42, 63, 95); fill-opacity: 1; white-space: pre;">actual</text><g class="layers" style="opacity: 1;"><g class="legendfill"/><g class="legendlines"><path class="js-line" d="M5,0h30" style="fill: none; stroke: rgb(192, 57, 43); stroke-opacity: 1; stroke-width: 2.5px;"/></g><g class="legendsymbols"><g class="legendpoints"><path class="scatterpts" transform="translate(20,0)" d="M3,0A3,3 0 1,1 0,-3A3,3 0 0,1 3,0Z" style="opacity: 1; stroke-width: 0px; fill: rgb(192, 57, 43); fill-opacity: 1;"/></g></g></g><rect class="legendtoggle" x="0" y="-9.5" width="78.78125" height="19" style="fill: rgb(0, 0, 0); fill-opacity: 0;"/></g><g class="traces" transform="translate(181.859375,14.5)" style="opacity: 1;"><text class="legendtext" text-anchor="start" x="40" y="4.680000000000001" style="font-family: 'Open Sans', verdana, arial, sans-serif; font-size: 12px; fill: rgb(42, 63, 95); fill-opacity: 1; white-space: pre;">expected</text><g class="layers" style="opacity: 1;"><g class="legendfill"/><g class="legendlines"><path class="js-line" d="M5,0h30" style="fill: none; stroke: rgb(31, 95, 153); stroke-opacity: 1; stroke-width: 2.5px;"/></g><g class="legendsymbols"><g class="legendpoints"><path class="scatterpts" transform="translate(20,0)" d="M3,0A3,3 0 1,1 0,-3A3,3 0 0,1 3,0Z" style="opacity: 1; stroke-width: 0px; fill: rgb(31, 95, 153); fill-opacity: 1;"/></g></g></g><rect class="legendtoggle" x="0" y="-9.5" width="96.984375" height="19" style="fill: rgb(0, 0, 0); fill-opacity: 0;"/></g></g></g><rect class="scrollbar" rx="20" ry="3" width="0" height="0" style="fill: rgb(128, 139, 164); fill-opacity: 1;" x="0" y="0"/></g><g class="g-gtitle"><text class="gtitle" x="45" y="25" text-anchor="start" dy="0em" style="opacity: 1; font-family: 'Open Sans', verdana, arial, sans-serif; font-size: 17px; fill: rgb(42, 63, 95); fill-opacity: 1; white-space: pre;">VehAge — actual vs expected (Training)</text></g><g class="g-xtitle"/><g class="g-ytitle"><text class="ytitle" transform="rotate(-90,17.084375,190.5)" x="17.084375" y="190.5" text-anchor="middle" style="opacity: 1; font-family: 'Open Sans', verdana, arial, sans-serif; font-size: 14px; fill: rgb(42, 63, 95); fill-opacity: 1; white-space: pre;">Exposure</text></g><g class="g-y2title"><text class="y2title" transform="rotate(-90,868.29609375,190.5)" x="868.29609375" y="190.5" text-anchor="middle" style="opacity: 1; font-family: 'Open Sans', verdana, arial, sans-serif; font-size: 14px; fill: rgb(42, 63, 95); fill-opacity: 1; white-space: pre;">rate</text></g></g></svg>