<svg class="main-svg" xmlns="http://www.w3.org/2000/svg" xmlns:xlink="http://www.w3.org/1999/xlink" width="900" height="430" style="" viewBox="0 0 900 430"><rect x="0" y="0" width="900" height="430" style="fill: rgb(255, 255, 255); fill-opacity: 1;"/><defs id="defs-32a13d"><g class="clips"><clipPath id="clip32a13dxyplot" class="plotclip"><rect width="744.4799999999999" height="281"/></clipPath><clipPath id="clip32a13dxy2plot" class="plotclip"><rect width="744.4799999999999" height="281"/></clipPath><clipPath class="axesclip" id="clip32a13dx"><rect x="68" y="0" width="744.4799999999999" height="430"/></clipPath><clipPath class="axesclip" id="clip32a13dy"><rect x="0" y="50" width="900" height="281"/></clipPath><clipPath class="axesclip" id="clip32a13dxy"><rect x="68" y="50" width="744.4799999999999" height="281"/></clipPath><clipPath class="axesclip" id="clip32a13dy2"><rect x="0" y="50" width="900" height="281"/></clipPath><clipPath class="axesclip" id="clip32a13dxy2"><rect x="68" y="50" width="744.4799999999999" height="281"/></clipPath></g><g class="gradients"/><g class="patterns"/></defs><g class="bglayer"/><g class="layer-below"><g class="imagelayer"/><g class="shapelayer"/></g><g class="cartesianlayer"><g class="subplot xy"><g class="layer-subplot"><g class="shapelayer"/><g class="imagelayer"/></g><g class="minor-gridlayer"><g class="x"/><g class="y"/><g class="y2"/></g><g class="gridlayer"><g class="x"/><g class="y"/><g class="y2"><path class="y2grid crisp" transform="translate(0,291.12)" d="M68,0h744.4799999999999" style="stroke: rgb(235, 240, 248); stroke-opacity: 1; stroke-width: 1px;"/><path class="y2grid crisp" transform="translate(0,251.25)" d="M68,0h744.4799999999999" style="stroke: rgb(235, 240, 248); stroke-opacity: 1; stroke-width: 1px;"/><path class="y2grid crisp" transform="translate(0,211.37)" d="M68,0h744.4799999999999" style="stroke: rgb(235, 240, 248); stroke-opacity: 1; stroke-width: 1px;"/><path class="y2grid crisp" transform="translate(0,171.49)" d="M68,0h744.4799999999999" style="stroke: rgb(235, 240, 248); stroke-opacity: 1; stroke-width: 1px;"/><path class="y2grid crisp" transform="translate(0,131.62)" d="M68,0h744.4799999999999" style="stroke: rgb(235, 240, 248); stroke-opacity: 1; stroke-width: 1px;"/><path class="y2grid crisp" transform="translate(0,91.74000000000001)" d="M68,0h744.4799999999999" style="stroke: rgb(235, 240, 248); stroke-opacity: 1; stroke-width: 1px;"/><path class="y2grid crisp" transform="translate(0,51.86)" d="M68,0h744.4799999999999" style="stroke: rgb(235, 240, 248); stroke-opacity: 1; stroke-width: 1px;"/></g></g><g class="zerolinelayer"><path class="yzl zl crisp" transform="translate(0,331)" d="M68,0h744.4799999999999" style="stroke: rgb(235, 240, 248); stroke-opacity: 1; stroke-width: 2px;"/><path class="y2zl zl crisp" transform="translate(0,331)" d="M68,0h744.4799999999999" style="stroke: rgb(235, 240, 248); stroke-opacity: 1; stroke-width: 2px;"/></g><g class="layer-between"><g class="shapelayer"/><g class="imagelayer"/></g><path class="xlines-below"/><path class="ylines-below"/><g class="overlines-below"><path class="xy2-x"/><path class="xy2-y"/></g><g class="xaxislayer-below"/><g class="yaxislayer-below"/><g class="overaxes-below"><g class="xy2-x"/><g class="xy2-y"/></g><g class="overplot"><g class="xy" transform="translate(68,50)" clip-path="url(#clip32a13dxyplot)"><g class="barlayer mlayer"><g class="trace bars" style="opacity: 0.7;"><g class="points"><g class="point"><path d="M27.72,281V181.16H54.22V281Z" style="vector-effect: none; opacity: 1; stroke-width: 0.5px; fill: rgb(201, 207, 214); fill-opacity: 1; stroke: rgb(255, 255, 255); stroke-opacity: 1;"/></g><g class="point"><path d="M60.85,281V157.1H87.35V281Z" style="vector-effect: none; opacity: 1; stroke-width: 0.5px; fill: rgb(201, 207, 214); fill-opacity: 1; stroke: rgb(255, 255, 255); stroke-opacity: 1;"/></g><g class="point"><path d="M93.98,281V167.8H120.48V281Z" style="vector-effect: none; opacity: 1; stroke-width: 0.5px; fill: rgb(201, 207, 214); fill-opacity: 1; stroke: rgb(255, 255, 255); stroke-opacity: 1;"/></g><g class="point"><path d="M127.1,281V170.17H153.6V281Z" style="vector-effect: none; opacity: 1; stroke-width: 0.5px; fill: rgb(201, 207, 214); fill-opacity: 1; stroke: rgb(255, 255, 255); stroke-opacity: 1;"/></g><g class="point"><path d="M160.23,281V175.14H186.73V281Z" style="vector-effect: none; opacity: 1; stroke-width: 0.5px; fill: rgb(201, 207, 214); fill-opacity: 1; stroke: rgb(255, 255, 255); stroke-opacity: 1;"/></g><g class="point"><path d="M193.36,281V153.36H219.86V281Z" style="vector-effect: none; opacity: 1; stroke-width: 0.5px; fill: rgb(201, 207, 214); fill-opacity: 1; stroke: rgb(255, 255, 255); stroke-opacity: 1;"/></g><g class="point"><path d="M226.48,281V173.95H252.98V281Z" style="vector-effect: none; opacity: 1; stroke-width: 0.5px; fill: rgb(201, 207, 214); fill-opacity: 1; stroke: rgb(255, 255, 255); stroke-opacity: 1;"/></g><g class="point"><path d="M259.61,281V125.42H286.11V281Z" style="vector-effect: none; opacity: 1; stroke-width: 0.5px; fill: rgb(201, 207, 214); fill-opacity: 1; stroke: rgb(255, 255, 255); stroke-opacity: 1;"/></g><g class="point"><path d="M292.74,281V204.64H319.24V281Z" style="vector-effect: none; opacity: 1; stroke-width: 0.5px; fill: rgb(201, 207, 214); fill-opacity: 1; stroke: rgb(255, 255, 255); stroke-opacity: 1;"/></g><g class="point"><path d="M325.86,281V28.12H352.36V281Z" style="vector-effect: none; opacity: 1; stroke-width: 0.5px; fill: rgb(201, 207, 214); fill-opacity: 1; stroke: rgb(255, 255, 255); stroke-opacity: 1;"/></g><g class="point"><path d="M358.99,281V152.89H385.49V281Z" style="vector-effect: none; opacity: 1; stroke-width: 0.5px; fill: rgb(201, 207, 214); fill-opacity: 1; stroke: rgb(255, 255, 255); stroke-opacity: 1;"/></g><g class="point"><path d="M392.12,281V14.05H418.62V281Z" style="vector-effect: none; opacity: 1; stroke-width: 0.5px; fill: rgb(201, 207, 214); fill-opacity: 1; stroke: rgb(255, 255, 255); stroke-opacity: 1;"/></g><g class="point"><path d="M425.24,281V19.59H451.74V281Z" style="vector-effect: none; opacity: 1; stroke-width: 0.5px; fill: rgb(201, 207, 214); fill-opacity: 1; stroke: rgb(255, 255, 255); stroke-opacity: 1;"/></g><g class="point"><path d="M458.37,281V154.53H484.87V281Z" style="vector-effect: none; opacity: 1; stroke-width: 0.5px; fill: rgb(201, 207, 214); fill-opacity: 1; stroke: rgb(255, 255, 255); stroke-opacity: 1;"/></g><g class="point"><path d="M491.5,281V27.02H518V281Z" style="vector-effect: none; opacity: 1; stroke-width: 0.5px; fill: rgb(201, 207, 214); fill-opacity: 1; stroke: rgb(255, 255, 255); stroke-opacity: 1;"/></g><g class="point"><path d="M524.62,281V50.67H551.12V281Z" style="vector-effect: none; opacity: 1; stroke-width: 0.5px; fill: rgb(201, 207, 214); fill-opacity: 1; stroke: rgb(255, 255, 255); stroke-opacity: 1;"/></g><g class="point"><path d="M557.75,281V105.57H584.25V281Z" style="vector-effect: none; opacity: 1; stroke-width: 0.5px; fill: rgb(201, 207, 214); fill-opacity: 1; stroke: rgb(255, 255, 255); stroke-opacity: 1;"/></g><g class="point"><path d="M590.88,281V97.36H617.38V281Z" style="vector-effect: none; opacity: 1; stroke-width: 0.5px; fill: rgb(201, 207, 214); fill-opacity: 1; stroke: rgb(255, 255, 255); stroke-opacity: 1;"/></g><g class="point"><path d="M624,281V134.63H650.5V281Z" style="vector-effect: none; opacity: 1; stroke-width: 0.5px; fill: rgb(201, 207, 214); fill-opacity: 1; stroke: rgb(255, 255, 255); stroke-opacity: 1;"/></g><g class="point"><path d="M657.13,281V143.12H683.63V281Z" style="vector-effect: none; opacity: 1; stroke-width: 0.5px; fill: rgb(201, 207, 214); fill-opacity: 1; stroke: rgb(255, 255, 255); stroke-opacity: 1;"/></g><g class="point"><path d="M690.26,281V281H716.76V281Z" style="vector-effect: none; opacity: 1; stroke-width: 0.5px; fill: rgb(201, 207, 214); fill-opacity: 1; stroke: rgb(255, 255, 255); stroke-opacity: 1;"/></g></g></g></g></g><g class="xy2" transform="translate(68,50)" clip-path="url(#clip32a13dxy2plot)"><g class="scatterlayer mlayer"><g class="trace scatter trace1fd563" style="stroke-miterlimit: 2; opacity: 1;"><g class="fills"/><g class="errorbars"/><g class="lines"><path class="js-line" d="M40.97,228.76L74.1,91.27L107.23,17.8L140.35,164.03L173.48,183.25L206.61,218.74L239.73,251.68L272.86,221.73L305.99,260.55L339.11,251.86L372.24,227.36L405.37,271.16L438.49,258.14L471.62,271.69L504.75,255.05L537.87,262.87L571,230.57L604.13,266.94L637.25,247.12L670.38,274.61" style="vector-effect: none; fill: none; stroke: rgb(192, 57, 43); stroke-opacity: 1; stroke-width: 2.5px; opacity: 1;"/></g><g class="points"><path class="point" transform="translate(40.97,228.76)" d="M3,0A3,3 0 1,1 0,-3A3,3 0 0,1 3,0Z" style="opacity: 1; stroke-width: 0px; fill: rgb(192, 57, 43); fill-opacity: 1;"/><path class="point" transform="translate(74.1,91.27)" d="M3,0A3,3 0 1,1 0,-3A3,3 0 0,1 3,0Z" style="opacity: 1; stroke-width: 0px; fill: rgb(192, 57, 43); fill-opacity: 1;"/><path class="point" transform="translate(107.23,17.8)" d="M3,0A3,3 0 1,1 0,-3A3,3 0 0,1 3,0Z" style="opacity: 1; stroke-width: 0px; fill: rgb(192, 57, 43); fill-opacity: 1;"/><path class="point" transform="translate(140.35,164.03)" d="M3,0A3,3 0 1,1 0,-3A3,3 0 0,1 3,0Z" style="opacity: 1; stroke-width: 0px; fill: rgb(192, 57, 43); fill-opacity: 1;"/><path class="point" transform="translate(173.48,183.25)" d="M3,0A3,3 0 1,1 0,-3A3,3 0 0,1 3,0Z" style="opacity: 1; stroke-width: 0px; fill: rgb(192, 57, 43); fill-opacity: 1;"/><path class="point" transform="translate(206.61,218.74)" d="M3,0A3,3 0 1,1 0,-3A3,3 0 0,1 3,0Z" style="opacity: 1; stroke-width: 0px; fill: rgb(192, 57, 43); fill-opacity: 1;"/><path class="point" transform="translate(239.73,251.68)" d="M3,0A3,3 0 1,1 0,-3A3,3 0 0,1 3,0Z" style="opacity: 1; stroke-width: 0px; fill: rgb(192, 57, 43); fill-opacity: 1;"/><path class="point" transform="translate(272.86,221.73)" d="M3,0A3,3 0 1,1 0,-3A3,3 0 0,1 3,0Z" style="opacity: 1; stroke-width: 0px; fill: rgb(192, 57, 43); fill-opacity: 1;"/><path class="point" transform="translate(305.99,260.55)" d="M3,0A3,3 0 1,1 0,-3A3,3 0 0,1 3,0Z" style="opacity: 1; stroke-width: 0px; fill: rgb(192, 57, 43); fill-opacity: 1;"/><path class="point" transform="translate(339.11,251.86)" d="M3,0A3,3 0 1,1 0,-3A3,3 0 0,1 3,0Z" style="opacity: 1; stroke-width: 0px; fill: rgb(192, 57, 43); fill-opacity: 1;"/><path class="point" transform="translate(372.24,227.36)" d="M3,0A3,3 0 1,1 0,-3A3,3 0 0,1 3,0Z" style="opacity: 1; stroke-width: 0px; fill: rgb(192, 57, 43); fill-opacity: 1;"/><path class="point" transform="translate(405.37,271.16)" d="M3,0A3,3 0 1,1 0,-3A3,3 0 0,1 3,0Z" style="opacity: 1; stroke-width: 0px; fill: rgb(192, 57, 43); fill-opacity: 1;"/><path class="point" transform="translate(438.49,258.14)" d="M3,0A3,3 0 1,1 0,-3A3,3 0 0,1 3,0Z" style="opacity: 1; stroke-width: 0px; fill: rgb(192, 57, 43); fill-opacity: 1;"/><path class="point" transform="translate(471.62,271.69)" d="M3,0A3,3 0 1,1 0,-3A3,3 0 0,1 3,0Z" style="opacity: 1; stroke-width: 0px; fill: rgb(192, 57, 43); fill-opacity: 1;"/><path class="point" transform="translate(504.75,255.05)" d="M3,0A3,3 0 1,1 0,-3A3,3 0 0,1 3,0Z" style="opacity: 1; stroke-width: 0px; fill: rgb(192, 57, 43); fill-opacity: 1;"/><path class="point" transform="translate(537.87,262.87)" d="M3,0A3,3 0 1,1 0,-3A3,3 0 0,1 3,0Z" style="opacity: 1; stroke-width: 0px; fill: rgb(192, 57, 43); fill-opacity: 1;"/><path class="point" transform="translate(571,230.57)" d="M3,0A3,3 0 1,1 0,-3A3,3 0 0,1 3,0Z" style="opacity: 1; stroke-width: 0px; fill: rgb(192, 57, 43); fill-opacity: 1;"/><path class="point" transform="translate(604.13,266.94)" d="M3,0A3,3 0 1,1 0,-3A3,3 0 0,1 3,0Z" style="opacity: 1; stroke-width: 0px; fill: rgb(192, 57, 43); fill-opacity: 1;"/><path class="point" transform="translate(637.25,247.12)" d="M3,0A3,3 0 1,1 0,-3A3,3 0 0,1 3,0Z" style="opacity: 1; stroke-width: 0px; fill: rgb(192, 57, 43); fill-opacity: 1;"/><path class="point" transform="translate(670.38,274.61)" d="M3,0A3,3 0 1,1 0,-3A3,3 0 0,1 3,0Z" style="opacity: 1; stroke-width: 0px; fill: rgb(192, 57, 43); fill-opacity: 1;"/></g><g class="text"/></g><g class="trace scatter trace060333" style="stroke-miterlimit: 2; opacity: 1;"><g class="fills"/><g class="errorbars"/><g class="lines"><path class="js-line" d="M40.97,205.66L74.1,123.43L107.23,107.26L140.35,153.32L173.48,211.77L206.61,221.05L239.73,236.01L272.86,241.36L305.99,245.62L372.24,244.7L405.37,261.19L438.49,259.95L471.62,261.37L504.75,261.41L537.87,260.5L604.13,261.92L637.25,263.46L670.38,266.16" style="vector-effect: none; fill: none; stroke: rgb(31, 95, 153); stroke-opacity: 1; stroke-width: 2.5px; opacity: 1;"/></g><g class="points"><path class="point" transform="translate(40.97,205.66)" d="M3,0A3,3 0 1,1 0,-3A3,3 0 0,1 3,0Z" style="opacity: 1; stroke-width: 0px; fill: rgb(31, 95, 153); fill-opacity: 1;"/><path class="point" transform="translate(74.1,123.43)" d="M3,0A3,3 0 1,1 0,-3A3,3 0 0,1 3,0Z" style="opacity: 1; stroke-width: 0px; fill: rgb(31, 95, 153); fill-opacity: 1;"/><path class="point" transform="translate(107.23,107.26)" d="M3,0A3,3 0 1,1 0,-3A3,3 0 0,1 3,0Z" style="opacity: 1; stroke-width: 0px; fill: rgb(31, 95, 153); fill-opacity: 1;"/><path class="point" transform="translate(140.35,153.32)" d="M3,0A3,3 0 1,1 0,-3A3,3 0 0,1 3,0Z" style="opacity: 1; stroke-width: 0px; fill: rgb(31, 95, 153); fill-opacity: 1;"/><path class="point" transform="translate(173.48,211.77)" d="M3,0A3,3 0 1,1 0,-3A3,3 0 0,1 3,0Z" style="opacity: 1; stroke-width: 0px; fill: rgb(31, 95, 153); fill-opacity: 1;"/><path class="point" transform="translate(206.61,221.05)" d="M3,0A3,3 0 1,1 0,-3A3,3 0 0,1 3,0Z" style="opacity: 1; stroke-width: 0px; fill: rgb(31, 95, 153); fill-opacity: 1;"/><path class="point" transform="translate(239.73,236.01)" d="M3,0A3,3 0 1,1 0,-3A3,3 0 0,1 3,0Z" style="opacity: 1; stroke-width: 0px; fill: rgb(31, 95, 153); fill-opacity: 1;"/><path class="point" transform="translate(272.86,241.36)" d="M3,0A3,3 0 1,1 0,-3A3,3 0 0,1 3,0Z" style="opacity: 1; stroke-width: 0px; fill: rgb(31, 95, 153); fill-opacity: 1;"/><path class="point" transform="translate(305.99,245.62)" d="M3,0A3,3 0 1,1 0,-3A3,3 0 0,1 3,0Z" style="opacity: 1; stroke-width: 0px; fill: rgb(31, 95, 153); fill-opacity: 1;"/><path class="point" transform="translate(339.11,245)" d="M3,0A3,3 0 1,1 0,-3A3,3 0 0,1 3,0Z" style="opacity: 1; stroke-width: 0px; fill: rgb(31, 95, 153); fill-opacity: 1;"/><path class="point" transform="translate(372.24,244.7)" d="M3,0A3,3 0 1,1 0,-3A3,3 0 0,1 3,0Z" style="opacity: 1; stroke-width: 0px; fill: rgb(31, 95, 153); fill-opacity: 1;"/><path class="point" transform="translate(405.37,261.19)" d="M3,0A3,3 0 1,1 0,-3A3,3 0 0,1 3,0Z" style="opacity: 1; stroke-width: 0px; fill: rgb(31, 95, 153); fill-opacity: 1;"/><path class="point" transform="translate(438.49,259.95)" d="M3,0A3,3 0 1,1 0,-3A3,3 0 0,1 3,0Z" style="opacity: 1; stroke-width: 0px; fill: rgb(31, 95, 153); fill-opacity: 1;"/><path class="point" transform="translate(471.62,261.37)" d="M3,0A3,3 0 1,1 0,-3A3,3 0 0,1 3,0Z" style="opacity: 1; stroke-width: 0px; fill: rgb(31, 95, 153); fill-opacity: 1;"/><path class="point" transform="translate(504.75,261.41)" d="M3,0A3,3 0 1,1 0,-3A3,3 0 0,1 3,0Z" style="opacity: 1; stroke-width: 0px; fill: rgb(31, 95, 153); fill-opacity: 1;"/><path class="point" transform="translate(537.87,260.5)" d="M3,0A3,3 0 1,1 0,-3A3,3 0 0,1 3,0Z" style="opacity: 1; stroke-width: 0px; fill: rgb(31, 95, 153); fill-opacity: 1;"/><path class="point" transform="translate(571,261.24)" d="M3,0A3,3 0 1,1 0,-3A3,3 0 0,1 3,0Z" style="opacity: 1; stroke-width: 0px; fill: rgb(31, 95, 153); fill-opacity: 1;"/><path class="point" transform="translate(604.13,261.92)" d="M3,0A3,3 0 1,1 0,-3A3,3 0 0,1 3,0Z" style="opacity: 1; stroke-width: 0px; fill: rgb(31, 95, 153); fill-opacity: 1;"/><path class="point" transform="translate(637.25,263.46)" d="M3,0A3,3 0 1,1 0,-3A3,3 0 0,1 3,0Z" style="opacity: 1; stroke-width: 0px; fill: rgb(31, 95, 153); fill-opacity: 1;"/><path class="point" transform="translate(670.38,266.16)" d="M3,0A3,3 0 1,1 0,-3A3,3 0 0,1 3,0Z" style="opacity: 1; stroke-width: 0px; fill: rgb(31, 95, 153); fill-opacity: 1;"/></g><g class="text"/></g></g></g></g><g class="zerolinelayer-above"/><path class="xlines-above crisp" d="M0,0" style="fill: none;"/><path class="ylines-above crisp" d="M0,0" style="fill: none;"/><g class="overlines-above"><path class="xy2-x crisp" d="M0,0" style="fill: none;"/><path class="xy2-y crisp" d="M0,0" style="fill: none;"/></g><g class="xaxislayer-above"><g class="xtick"><text text-anchor="end" x="0" y="344" transform="translate(108.97,0) rotate(-45,0,338)" style="font-family: 'Open Sans', verdana, arial, sans-serif; font-size: 12px; fill: rgb(42, 63, 95); fill-opacity: 1; white-space: pre;">&#60; 22.0</text></g><g class="xtick"><text text-anchor="end" x="0" y="344" transform="translate(142.1,0) rotate(-45,0,338)" style="font-family: 'Open Sans', verdana, arial, sans-serif; font-size: 12px; fill: rgb(42, 63, 95); fill-opacity: 1; white-space: pre;">[22.0, 25.0)</text></g><g class="xtick"><text text-anchor="end" x="0" y="344" transform="translate(175.23000000000002,0) rotate(-45,0,338)" style="font-family: 'Open Sans', verdana, arial, sans-serif; font-size: 12px; fill: rgb(42, 63, 95); fill-opacity: 1; white-space: pre;">[25.0, 27.0)</text></g><g class="xtick"><text text-anchor="end" x="0" y="344" transform="translate(208.35,0) rotate(-45,0,338)" style="font-family: 'Open Sans', verdana, arial, sans-serif; font-size: 12px; fill: rgb(42, 63, 95); fill-opacity: 1; white-space: pre;">[27.0, 29.0)</text></g><g class="xtick"><text text-anchor="end" x="0" y="344" transform="translate(241.48,0) rotate(-45,0,338)" style="font-family: 'Open Sans', verdana, arial, sans-serif; font-size: 12px; fill: rgb(42, 63, 95); fill-opacity: 1; white-space: pre;">[29.0, 31.0)</text></g><g class="xtick"><text text-anchor="end" x="0" y="344" transform="translate(274.61,0) rotate(-45,0,338)" style="font-family: 'Open Sans', verdana, arial, sans-serif; font-size: 12px; fill: rgb(42, 63, 95); fill-opacity: 1; white-space: pre;">[31.0, 34.0)</text></g><g class="xtick"><text text-anchor="end" x="0" y="344" transform="translate(307.73,0) rotate(-45,0,338)" style="font-family: 'Open Sans', verdana, arial, sans-serif; font-size: 12px; fill: rgb(42, 63, 95); fill-opacity: 1; white-space: pre;">[34.0, 37.0)</text></g><g class="xtick"><text text-anchor="end" x="0" y="344" transform="translate(340.86,0) rotate(-45,0,338)" style="font-family: 'Open Sans', verdana, arial, sans-serif; font-size: 12px; fill: rgb(42, 63, 95); fill-opacity: 1; white-space: pre;">[37.0, 41.0)</text></g><g class="xtick"><text text-anchor="end" x="0" y="344" transform="translate(373.99,0) rotate(-45,0,338)" style="font-family: 'Open Sans', verdana, arial, sans-serif; font-size: 12px; fill: rgb(42, 63, 95); fill-opacity: 1; white-space: pre;">[41.0, 42.0)</text></g><g class="xtick"><text text-anchor="end" x="0" y="344" transform="translate(407.11,0) rotate(-45,0,338)" style="font-family: 'Open Sans', verdana, arial, sans-serif; font-size: 12px; fill: rgb(42, 63, 95); fill-opacity: 1; white-space: pre;">[42.0, 44.0)</text></g><g class="xtick"><text text-anchor="end" x="0" y="344" transform="translate(440.24,0) rotate(-45,0,338)" style="font-family: 'Open Sans', verdana, arial, sans-serif; font-size: 12px; fill: rgb(42, 63, 95); fill-opacity: 1; white-space: pre;">[44.0, 45.0)</text></g><g class="xtick"><text text-anchor="end" x="0" y="344" transform="translate(473.37,0) rotate(-45,0,338)" style="font-family: 'Open Sans', verdana, arial, sans-serif; font-size: 12px; fill: rgb(42, 63, 95); fill-opacity: 1; white-space: pre;">[45.0, 47.0)</text></g><g class="xtick"><text text-anchor="end" x="0" y="344" transform="translate(506.49,0) rotate(-45,0,338)" style="font-family: 'Open Sans', verdana, arial, sans-serif; font-size: 12px; fill: rgb(42, 63, 95); fill-opacity: 1; white-space: pre;">[47.0, 49.0)</text></g><g class="xtick"><text text-anchor="end" x="0" y="344" transform="translate(539.62,0) rotate(-45,0,338)" style="font-family: 'Open Sans', verdana, arial, sans-serif; font-size: 12px; fill: rgb(42, 63, 95); fill-opacity: 1; white-space: pre;">[49.0, 50.0)</text></g><g class="xtick"><text text-anchor="end" x="0" y="344" transform="translate(572.75,0) rotate(-45,0,338)" style="font-family: 'Open Sans', verdana, arial, sans-serif; font-size: 12px; fill: rgb(42, 63, 95); fill-opacity: 1; white-space: pre;">[50.0, 52.0)</text></g><g class="xtick"><text text-anchor="end" x="0" y="344" transform="translate(605.87,0) rotate(-45,0,338)" style="font-family: 'Open Sans', verdana, arial, sans-serif; font-size: 12px; fill: rgb(42, 63, 95); fill-opacity: 1; white-space: pre;">[52.0, 54.0)</text></g><g class="xtick"><text text-anchor="end" x="0" y="344" transform="translate(639,0) rotate(-45,0,338)" style="font-family: 'Open Sans', verdana, arial, sans-serif; font-size: 12px; fill: rgb(42, 63, 95); fill-opacity: 1; white-space: pre;">[54.0, 56.0)</text></g><g class="xtick"><text text-anchor="end" x="0" y="344" transform="translate(672.13,0) rotate(-45,0,338)" style="font-family: 'Open Sans', verdana, arial, sans-serif; font-size: 12px; fill: rgb(42, 63, 95); fill-opacity: 1; white-space: pre;">[56.0, 59.0)</text></g><g class="xtick"><text text-anchor="end" x="0" y="344" transform="translate(705.25,0) rotate(-45,0,338)" style="font-family: 'Open Sans', verdana, arial, sans-serif; font-size: 12px; fill: rgb(42, 63, 95); fill-opacity: 1; white-space: pre;">[59.0, 63.0)</text></g><g class="xtick"><text text-anchor="end" x="0" y="344" transform="translate(738.38,0) rotate(-45,0,338)" style="font-family: 'Open Sans', verdana, arial, sans-serif; font-size: 12px; fill: rgb(42, 63, 95); fill-opacity: 1; white-space: pre;">≥ 63.0</text></g><g class="xtick"><text text-anchor="end" x="0" y="344" transform="translate(771.51,0) rotate(-45,0,338)" style="font-family: 'Open Sans', verdana, arial, sans-serif; font-size: 12px; fill: rgb(42, 63, 95); fill-opacity: 1; white-space: pre;">Other / Unknown</text></g></g><g class="yaxislayer-above"><g class="ytick"><text text-anchor="end" x="67" y="4.199999999999999" transform="translate(0,331)" style="font-family: 'Open Sans', verdana, arial, sans-serif; font-size: 12px; fill: rgb(42, 63, 95); fill-opacity: 1; white-space: pre;">0</text></g><g class="ytick"><text text-anchor="end" x="67" y="4.199999999999999" style="font-family: 'Open Sans', verdana, arial, sans-serif; font-size: 12px; fill: rgb(42, 63, 95); fill-opacity: 1; white-space: pre;" transform="translate(0,295.88)">500</text></g><g class="ytick"><text text-anchor="end" x="67" y="4.199999999999999" style="font-family: 'Open Sans', verdana, arial, sans-serif; font-size: 12px; fill: rgb(42, 63, 95); fill-opacity: 1; white-space: pre;" transform="translate(0,260.76)">1000</text></g><g class="ytick"><text text-anchor="end" x="67" y="4.199999999999999" style="font-family: 'Open Sans', verdana, arial, sans-serif; font-size: 12px; fill: rgb(42, 63, 95); fill-opacity: 1; white-space: pre;" transform="translate(0,225.65)">1500</text></g><g class="ytick"><text text-anchor="end" x="67" y="4.199999999999999" style="font-family: 'Open Sans', verdana, arial, sans-serif; font-size: 12px; fill: rgb(42, 63, 95); fill-opacity: 1; white-space: pre;" transform="translate(0,190.53)">2000</text></g><g class="ytick"><text text-anchor="end" x="67" y="4.199999999999999" style="font-family: 'Open Sans', verdana, arial, sans-serif; font-size: 12px; fill: rgb(42, 63, 95); fill-opacity: 1; white-space: pre;" transform="translate(0,155.41)">2500</text></g><g class="ytick"><text text-anchor="end" x="67" y="4.199999999999999" style="font-family: 'Open Sans', verdana, arial, sans-serif; font-size: 12px; fill: rgb(42, 63, 95); fill-opacity: 1; white-space: pre;" transform="translate(0,120.29)">3000</text></g><g class="ytick"><text text-anchor="end" x="67" y="4.199999999999999" style="font-family: 'Open Sans', verdana, arial, sans-serif; font-size: 12px; fill: rgb(42, 63, 95); fill-opacity: 1; white-space: pre;" transform="translate(0,85.18)">3500</text></g><g class="ytick"><text text-anchor="end" x="67" y="4.199999999999999" style="font-family: 'Open Sans', verdana, arial, sans-serif; font-size: 12px; fill: rgb(42, 63, 95); fill-opacity: 1; white-space: pre;" transform="translate(0,50.06)">4000</text></g></g><g class="overaxes-above"><g class="xy2-x"/><g class="xy2-y"><g class="y2tick"><text text-anchor="start" x="813.4799999999999" y="4.199999999999999" transform="translate(0,331)" style="font-family: 'Open Sans', verdana, arial, sans-serif; font-size: 12px; fill: rgb(42, 63, 95); fill-opacity: 1; white-space: pre;">0</text></g><g class="y2tick"><text text-anchor="start" x="813.4799999999999" y="4.199999999999999" style="font-family: 'Open Sans', verdana, arial, sans-serif; font-size: 12px; fill: rgb(42, 63, 95); fill-opacity: 1; white-space: pre;" transform="translate(0,291.12)">200</text></g><g class="y2tick"><text text-anchor="start" x="813.4799999999999" y="4.199999999999999" style="font-family: 'Open Sans', verdana, arial, sans-serif; font-size: 12px; fill: rgb(42, 63, 95); fill-opacity: 1; white-space: pre;" transform="translate(0,251.25)">400</text></g><g class="y2tick"><text text-anchor="start" x="813.4799999999999" y="4.199999999999999" style="font-family: 'Open Sans', verdana, arial, sans-serif; font-size: 12px; fill: rgb(42, 63, 95); fill-opacity: 1; white-space: pre;" transform="translate(0,211.37)">600</text></g><g class="y2tick"><text text-anchor="start" x="813.4799999999999" y="4.199999999999999" style="font-family: 'Open Sans', verdana, arial, sans-serif; font-size: 12px; fill: rgb(42, 63, 95); fill-opacity: 1; white-space: pre;" transform="translate(0,171.49)">800</text></g><g class="y2tick"><text text-anchor="start" x="813.4799999999999" y="4.199999999999999" style="font-family: 'Open Sans', verdana, arial, sans-serif; font-size: 12px; fill: rgb(42, 63, 95); fill-opacity: 1; white-space: pre;" transform="translate(0,131.62)">1000</text></g><g class="y2tick"><text text-anchor="start" x="813.4799999999999" y="4.199999999999999" style="font-family: 'Open Sans', verdana, arial, sans-serif; font-size: 12px; fill: rgb(42, 63, 95); fill-opacity: 1; white-space: pre;" transform="translate(0,91.74000000000001)">1200</text></g><g class="y2tick"><text text-anchor="start" x="813.4799999999999" y="4.199999999999999" style="font-family: 'Open Sans', verdana, arial, sans-serif; font-size: 12px; fill: rgb(42, 63, 95); fill-opacity: 1; white-space: pre;" transform="translate(0,51.86)">1400</text></g></g></g></g><g class="subplot xy2"/></g><g class="polarlayer"/><g class="smithlayer"/><g class="ternarylayer"/><g class="geolayer"/><g class="funnelarealayer"/><g class="pielayer"/><g class="iciclelayer"/><g class="treemaplayer"/><g class="sunburstlayer"/><g class="glimages"/><defs id="topdefs-32a13d"><g class="clips"/><clipPath id="legend32a13d"><rect width="282" height="29" x="0" y="0"/></clipPath></defs><g class="layer-above"><g class="imagelayer"/><g class="shapelayer"/></g><g class="infolayer"><g class="legend" pointer-events="all" transform="translate(68,15.379999999999995)"><rect class="bg" shape-rendering="crispEdges" style="stroke: rgb(68, 68, 68); stroke-opacity: 1; fill: rgb(255, 255, 255); fill-opacity: 1; stroke-width: 0px;" width="282" height="29" x="0" y="0"/><g class="scrollbox" transform="" clip-path="url(#legend32a13d)"><g class="groups"><g class="traces" transform="translate(0,14.5)" style="opacity: 1;"><text class="legendtext" text-anchor="start" x="40" y="4.680000000000001" style="font-family: 'Open Sans', verdana, arial, sans-serif; font-size: 12px; fill: rgb(42, 63, 95); fill-opacity: 1; white-space: pre;">Exposure</text><g class="layers" style="opacity: 0.7;"><g class="legendfill"/><g class="legendlines"/><g class="legendsymbols"><g class="legendpoints"><path class="legendundefined" d="M6,6H-6V-6H6Z" transform="translate(20,0)" style="stroke-width: 0.5px; fill: rgb(201, 207, 214); fill-opacity: 1; stroke: rgb(255, 255, 255); stroke-opacity: 1;"/></g></g></g><rect class="legendtoggle" x="0" y="-9.5" width="98.078125" height="19" style="fill: rgb(0, 0, 0); fill-opacity: 0;"/></g><g class="traces" transform="translate(100.578125,14.5)" style="opacity: 1;"><text class="legendtext" text-anchor="start" x="40" y="4.680000000000001" style="font-family: 'Open Sans', verdana, arial, sans-serif; font-size: 12px; fill: rgb(42, 63, 95); fill-opacity: 1; white-space: pre;">actual</text><g class="layers" style="opacity: 1;"><g class="legendfill"/><g class="legendlines"><path class="js-line" d="M5,0h30" style="fill: none; stroke: rgb(192, 57, 43); stroke-opacity: 1; stroke-width: 2.5px;"/></g><g class="legendsymbols"><g class="legendpoints"><path class="scatterpts" transform="translate(20,0)" d="M3,0A3,3 0 1,1 0,-3A3,3 0 0,1 3,0Z" style="opacity: 1; stroke-width: 0px; fill: rgb(192, 57, 43); fill-opacity: 1;"/></g></g></g><rect class="legendtoggle" x="0" y="-9.5" width="78.78125" height="19" style="fill: rgb(0, 0, 0); fill-opacity: 0;"/></g><g class="traces" transform="translate(181.859375,14.5)" style="opacity: 1;"><text class="legendtext" text-anchor="start" x="40" y="4.680000000000001" style="font-family: 'Open Sans', verdana, arial, sans-serif; font-size: 12px; fill: rgb(42, 63, 95); fill-opacity: 1; white-space: pre;">expected</text><g class="layers" style="opacity: 1;"><g class="legendfill"/><g class="legendlines"><path class="js-line" d="M5,0h30" style="fill: none; stroke: rgb(31, 95, 153); stroke-opacity: 1; stroke-width: 2.5px;"/></g><g class="legendsymbols"><g class="legendpoints"><path class="scatterpts" transform="translate(20,0)" d="M3,0A3,3 0 1,1 0,-3A3,3 0 0,1 3,0Z" style="opacity: 1; stroke-width: 0px; fill: rgb(31, 95, 153); fill-opacity: 1;"/></g></g></g><rect class="legendtoggle" x="0" y="-9.5" width="96.984375" height="19" style="fill: rgb(0, 0, 0); fill-opacity: 0;"/></g></g></g><rect class="scrollbar" rx="20" ry="3" width="0" height="0" style="fill: rgb(128, 139, 164); fill-opacity: 1;" x="0" y="0"/></g><g class="g-gtitle"><text class="gtitle" x="45" y="25" text-anchor="start" dy="0em" style="opacity: 1; font-family: 'Open Sans', verdana, arial, sans-serif; font-size: 17px; fill: rgb(42, 63, 95); fill-opacity: 1; white-space: pre;">OwnerAge — actual vs expected (Training)</text></g><g class="g-xtitle"/><g class="g-ytitle"><text class="ytitle" transform="rotate(-90,17.084375,190.5)" x="17.084375" y="190.5" text-anchor="middle" style="opacity: 1; font-family: 'Open Sans', verdana, arial, sans-serif; font-size: 14px; fill: rgb(42, 63, 95); fill-opacity: 1; white-space: pre;">Exposure</text></g><g class="g-y2title"><text class="y2title" transform="rotate(-90,868.29609375,190.5)" x="868.29609375" y="190.5" text-anchor="middle" style="opacity: 1; font-family: 'Open Sans', verdana, arial, sans-serif; font-size: 14px; fill: rgb(42, 63, 95); fill-opacity: 1; white-space: pre;">rate</text></g></g></svg>